<?xml version="1.0" encoding="UTF-8"?>
<svg width="137px" height="27px" viewBox="0 0 137 27" version="1.1" xmlns="http://www.w3.org/2000/svg" xmlns:xlink="http://www.w3.org/1999/xlink">
    <!-- Generator: Sketch 55.2 (78181) - https://sketchapp.com -->
    <title>4Finance logo</title>
    <desc>Created with Sketch.</desc>
    <g id="Symbols" stroke="none" stroke-width="1" fill="none" fill-rule="evenodd">
        <g id="Header-Uppercase" transform="translate(-688.000000, -48.000000)" fill="#0055B8">
            <g id="Header">
                <g>
                    <g id="4Finance-logo" transform="translate(688.000000, 48.000000)">
                        <path d="M36.0919297,6.05038389 L48.6619877,6.05038389 L48.6619877,9.04869912 L39.7274295,9.04869912 L39.7274295,12.2367407 L47.6013224,12.2367407 L47.6013224,15.23399 L39.7274295,15.23399 L39.7274295,21.0355647 L36.0919297,21.0355647 L36.0919297,6.05038389 Z M50.3043117,21.0360977 L50.3043117,6.05091683 L53.9355432,6.05091683 L53.9355432,21.0360977 L50.3043117,21.0360977 Z M56.6429075,6.05038389 L59.9913661,6.05038389 L67.7190707,15.2766251 L67.7190707,6.05038389 L71.3065524,6.05038389 L71.3065524,21.0355647 L68.2184584,21.0355647 L60.226121,11.5087459 L60.226121,21.0355647 L56.6429075,21.0355647 L56.6429075,6.05038389 Z M83.322162,14.7653234 L81.1304049,9.90278727 L78.9375807,14.7653234 L83.322162,14.7653234 Z M79.5031266,5.94411584 L82.8515851,5.94411584 L89.9230431,21.0358845 L86.1242819,21.0358845 L84.6175823,17.673039 L77.6389592,17.673039 L76.1290584,21.0358845 L72.4316686,21.0358845 L79.5031266,5.94411584 Z M91.0469855,6.05038389 L94.394377,6.05038389 L102.129551,15.2766251 L102.129551,6.05038389 L105.712765,6.05038389 L105.712765,21.0355647 L102.624671,21.0355647 L94.630199,11.5087459 L94.630199,21.0355647 L91.0469855,21.0355647 L91.0469855,6.05038389 Z M115.984465,21.2953193 C114.782947,21.2953193 113.650788,21.1013294 112.612531,20.694164 C111.575341,20.2848668 110.682206,19.7508618 109.924588,19.066568 C109.170171,18.3598908 108.582216,17.5455599 108.159658,16.6054554 C107.731763,15.664285 107.520484,14.6548984 107.520484,13.5847567 L107.520484,13.5431875 C107.520484,12.4730458 107.731763,11.4668569 108.159658,10.5459381 C108.582216,9.60370187 109.170171,8.78937096 109.924588,8.08482551 C110.682206,7.3781483 111.575341,6.82069403 112.637074,6.4124627 C113.697739,6.00423137 114.851239,5.79531925 116.124251,5.79531925 C116.904278,5.79531925 117.589335,5.85820606 118.224241,5.963728 C118.86128,6.06924993 119.449234,6.24298807 119.968896,6.43804377 C120.486424,6.6267042 120.958068,6.88784435 121.407304,7.16390679 C121.854405,7.44103511 122.253488,7.76186443 122.63123,8.10507719 L120.32423,10.5246206 C119.685056,9.98954976 119.026676,9.58451606 118.362959,9.28287254 C117.683237,8.98442666 116.92882,8.83200609 116.101843,8.83200609 C115.417852,8.83200609 114.782947,8.9631091 114.194993,9.19653641 C113.60277,9.43316136 113.087376,9.77744 112.663751,10.205923 C112.233722,10.6312084 111.905065,11.12471 111.671378,11.6800325 C111.433421,12.2577384 111.316044,12.8599596 111.316044,13.5005524 L111.316044,13.5431875 C111.316044,14.1848461 111.433421,14.7870673 111.671378,15.3647732 C111.905065,15.9414133 112.233722,16.433849 112.637074,16.8602003 C113.061767,17.2897492 113.555819,17.6308302 114.143774,17.8663893 C114.733862,18.1253976 115.39331,18.253303 116.101843,18.253303 C117.047265,18.253303 117.845432,18.1040801 118.485672,17.7832508 C119.144053,17.4613556 119.803501,17.0339384 120.439473,16.4988676 L122.749675,18.6199651 C122.327116,19.022867 121.877881,19.4087149 121.430779,19.731676 C120.983678,20.0503736 120.486424,20.3296337 119.945421,20.5651927 C119.405485,20.7996859 118.790854,20.9926099 118.153814,21.1013294 C117.514641,21.2303007 116.784766,21.2953193 115.984465,21.2953193 Z M136.678217,8.98463984 L127.837561,8.98463984 L127.837561,12.0245243 L135.617551,12.0245243 L135.617551,14.9556892 L127.837561,14.9556892 L127.837561,18.1000297 L136.678217,18.1000297 L136.678217,18.1042933 L136.796661,18.1042933 L136.796661,21.0354582 L124.230872,21.0354582 L124.230872,6.0502773 L136.796661,6.0502773 L136.796661,8.98250808 L136.678217,8.98250808 L136.678217,8.98463984 Z" id="Shape"></path>
                        <path d="M4.84368782,20.25384 L16.9922096,20.25384 L16.9922096,26.5383228 C15.8772401,26.8383465 14.7073668,26.9995692 13.4994832,26.9995692 C6.04418055,26.9995692 0.0005390625,20.9563867 0.0005390625,13.4952984 C0.0005390625,6.04168407 6.04418055,-0.000430769231 13.4994832,-0.000430769231 C20.9568976,-0.000430769231 27.0005391,6.04168407 27.0005391,13.4952984 C27.0005391,14.7968248 26.8157667,16.0503048 26.4736737,17.238655 L20.853425,17.238655 L20.8418108,3.20907572 L4.84368782,20.25384 Z M16.9919985,17.2389753 L12.1118952,17.2389753 L16.9919985,11.9784169 L16.9919985,17.2389753 Z M20.8535306,24.8176173 L20.8535306,20.2542671 L25.1888192,20.2542671 C24.1224185,22.0971175 22.6336808,23.6602304 20.8535306,24.8176173 Z" id="Combined-Shape"></path>
                    </g>
                </g>
            </g>
        </g>
    </g>
</svg>